<svg id="visual" viewBox="0 0 960 540" width="960" height="540" xmlns="http://www.w3.org/2000/svg" xmlns:xlink="http://www.w3.org/1999/xlink" version="1.1"><rect x="0" y="0" width="960" height="540" fill="#0c0014"></rect><path d="M0 395L22.8 385C45.7 375 91.3 355 137 342.3C182.7 329.7 228.3 324.3 274 314C319.7 303.7 365.3 288.3 411.2 293.2C457 298 503 323 548.8 334.5C594.7 346 640.3 344 686 339.5C731.7 335 777.3 328 823 324C868.7 320 914.3 319 937.2 318.5L960 318L960 541L937.2 541C914.3 541 868.7 541 823 541C777.3 541 731.7 541 686 541C640.3 541 594.7 541 548.8 541C503 541 457 541 411.2 541C365.3 541 319.7 541 274 541C228.3 541 182.7 541 137 541C91.3 541 45.7 541 22.8 541L0 541Z" fill="#590094"></path><path d="M0 375L22.8 376.7C45.7 378.3 91.3 381.7 137 377.3C182.7 373 228.3 361 274 358.3C319.7 355.7 365.3 362.3 411.2 357.3C457 352.3 503 335.7 548.8 343.2C594.7 350.7 640.3 382.3 686 393.8C731.7 405.3 777.3 396.7 823 382.2C868.7 367.7 914.3 347.3 937.2 337.2L960 327L960 541L937.2 541C914.3 541 868.7 541 823 541C777.3 541 731.7 541 686 541C640.3 541 594.7 541 548.8 541C503 541 457 541 411.2 541C365.3 541 319.7 541 274 541C228.3 541 182.7 541 137 541C91.3 541 45.7 541 22.8 541L0 541Z" fill="#4e078e"></path><path d="M0 309L22.8 323.3C45.7 337.7 91.3 366.3 137 375.8C182.7 385.3 228.3 375.7 274 378.5C319.7 381.3 365.3 396.7 411.2 400C457 403.3 503 394.7 548.8 388C594.7 381.3 640.3 376.7 686 382C731.7 387.3 777.3 402.7 823 397.8C868.7 393 914.3 368 937.2 355.5L960 343L960 541L937.2 541C914.3 541 868.7 541 823 541C777.3 541 731.7 541 686 541C640.3 541 594.7 541 548.8 541C503 541 457 541 411.2 541C365.3 541 319.7 541 274 541C228.3 541 182.7 541 137 541C91.3 541 45.7 541 22.8 541L0 541Z" fill="#440c87"></path><path d="M0 372L22.8 379C45.7 386 91.3 400 137 394.7C182.7 389.3 228.3 364.7 274 368C319.7 371.3 365.3 402.7 411.2 419.7C457 436.7 503 439.3 548.8 435.2C594.7 431 640.3 420 686 412.7C731.7 405.3 777.3 401.7 823 404.5C868.7 407.3 914.3 416.7 937.2 421.3L960 426L960 541L937.2 541C914.3 541 868.7 541 823 541C777.3 541 731.7 541 686 541C640.3 541 594.7 541 548.8 541C503 541 457 541 411.2 541C365.3 541 319.7 541 274 541C228.3 541 182.7 541 137 541C91.3 541 45.7 541 22.8 541L0 541Z" fill="#390f81"></path><path d="M0 432L22.8 431.8C45.7 431.7 91.3 431.3 137 435.2C182.7 439 228.3 447 274 440.8C319.7 434.7 365.3 414.3 411.2 404.7C457 395 503 396 548.8 405.5C594.7 415 640.3 433 686 437.2C731.7 441.3 777.3 431.7 823 424.7C868.7 417.7 914.3 413.3 937.2 411.2L960 409L960 541L937.2 541C914.3 541 868.7 541 823 541C777.3 541 731.7 541 686 541C640.3 541 594.7 541 548.8 541C503 541 457 541 411.2 541C365.3 541 319.7 541 274 541C228.3 541 182.7 541 137 541C91.3 541 45.7 541 22.8 541L0 541Z" fill="#2f117a"></path><path d="M0 437L22.8 440.5C45.7 444 91.3 451 137 448.2C182.7 445.3 228.3 432.7 274 433.2C319.7 433.7 365.3 447.3 411.2 446.7C457 446 503 431 548.8 420.8C594.7 410.7 640.3 405.3 686 404C731.7 402.7 777.3 405.3 823 413.8C868.7 422.3 914.3 436.7 937.2 443.8L960 451L960 541L937.2 541C914.3 541 868.7 541 823 541C777.3 541 731.7 541 686 541C640.3 541 594.7 541 548.8 541C503 541 457 541 411.2 541C365.3 541 319.7 541 274 541C228.3 541 182.7 541 137 541C91.3 541 45.7 541 22.8 541L0 541Z" fill="#241273"></path><path d="M0 464L22.8 467.3C45.7 470.7 91.3 477.3 137 471.5C182.7 465.7 228.3 447.3 274 440C319.7 432.7 365.3 436.3 411.2 444.2C457 452 503 464 548.8 461.2C594.7 458.3 640.3 440.7 686 438.7C731.7 436.7 777.3 450.3 823 457.3C868.7 464.3 914.3 464.7 937.2 464.8L960 465L960 541L937.2 541C914.3 541 868.7 541 823 541C777.3 541 731.7 541 686 541C640.3 541 594.7 541 548.8 541C503 541 457 541 411.2 541C365.3 541 319.7 541 274 541C228.3 541 182.7 541 137 541C91.3 541 45.7 541 22.8 541L0 541Z" fill="#1a126b"></path><path d="M0 504L22.8 501.5C45.7 499 91.3 494 137 490.2C182.7 486.3 228.3 483.7 274 483C319.7 482.3 365.3 483.7 411.2 480C457 476.3 503 467.7 548.8 471C594.7 474.3 640.3 489.7 686 492.5C731.7 495.3 777.3 485.7 823 484C868.7 482.3 914.3 488.7 937.2 491.8L960 495L960 541L937.2 541C914.3 541 868.7 541 823 541C777.3 541 731.7 541 686 541C640.3 541 594.7 541 548.8 541C503 541 457 541 411.2 541C365.3 541 319.7 541 274 541C228.3 541 182.7 541 137 541C91.3 541 45.7 541 22.8 541L0 541Z" fill="#0d1264"></path><path d="M0 488L22.8 490.2C45.7 492.3 91.3 496.7 137 499.8C182.7 503 228.3 505 274 507.2C319.7 509.3 365.3 511.7 411.2 510.2C457 508.7 503 503.3 548.8 503.2C594.7 503 640.3 508 686 508.2C731.7 508.3 777.3 503.7 823 500.7C868.7 497.7 914.3 496.3 937.2 495.7L960 495L960 541L937.2 541C914.3 541 868.7 541 823 541C777.3 541 731.7 541 686 541C640.3 541 594.7 541 548.8 541C503 541 457 541 411.2 541C365.3 541 319.7 541 274 541C228.3 541 182.7 541 137 541C91.3 541 45.7 541 22.8 541L0 541Z" fill="#00115c"></path></svg>