<svg id="visual" viewBox="0 0 540 960" width="540" height="960" xmlns="http://www.w3.org/2000/svg" xmlns:xlink="http://www.w3.org/1999/xlink" version="1.1"><rect x="0" y="0" width="540" height="960" fill="#0c0014"></rect><path d="M0 460L12.8 464.7C25.7 469.3 51.3 478.7 77 509.8C102.7 541 128.3 594 154 621.7C179.7 649.3 205.3 651.7 231.2 627.5C257 603.3 283 552.7 308.8 525.8C334.7 499 360.3 496 386 499.7C411.7 503.3 437.3 513.7 463 537.2C488.7 560.7 514.3 597.3 527.2 615.7L540 634L540 961L527.2 961C514.3 961 488.7 961 463 961C437.3 961 411.7 961 386 961C360.3 961 334.7 961 308.8 961C283 961 257 961 231.2 961C205.3 961 179.7 961 154 961C128.3 961 102.7 961 77 961C51.3 961 25.7 961 12.8 961L0 961Z" fill="#590094"></path><path d="M0 499L12.8 513.2C25.7 527.3 51.3 555.7 77 591C102.7 626.3 128.3 668.7 154 687C179.7 705.3 205.3 699.7 231.2 697.3C257 695 283 696 308.8 663.2C334.7 630.3 360.3 563.7 386 540.8C411.7 518 437.3 539 463 537.8C488.7 536.7 514.3 513.3 527.2 501.7L540 490L540 961L527.2 961C514.3 961 488.7 961 463 961C437.3 961 411.7 961 386 961C360.3 961 334.7 961 308.8 961C283 961 257 961 231.2 961C205.3 961 179.7 961 154 961C128.3 961 102.7 961 77 961C51.3 961 25.7 961 12.8 961L0 961Z" fill="#4e078e"></path><path d="M0 624L12.8 616.3C25.7 608.7 51.3 593.3 77 587.5C102.7 581.7 128.3 585.3 154 602C179.7 618.7 205.3 648.3 231.2 656.2C257 664 283 650 308.8 640.3C334.7 630.7 360.3 625.3 386 634.8C411.7 644.3 437.3 668.7 463 692C488.7 715.3 514.3 737.7 527.2 748.8L540 760L540 961L527.2 961C514.3 961 488.7 961 463 961C437.3 961 411.7 961 386 961C360.3 961 334.7 961 308.8 961C283 961 257 961 231.2 961C205.3 961 179.7 961 154 961C128.3 961 102.7 961 77 961C51.3 961 25.7 961 12.8 961L0 961Z" fill="#440c87"></path><path d="M0 764L12.8 740.8C25.7 717.7 51.3 671.3 77 656C102.7 640.7 128.3 656.3 154 682C179.7 707.7 205.3 743.3 231.2 751.8C257 760.3 283 741.7 308.8 729.8C334.7 718 360.3 713 386 712.2C411.7 711.3 437.3 714.7 463 709.2C488.7 703.7 514.3 689.3 527.2 682.2L540 675L540 961L527.2 961C514.3 961 488.7 961 463 961C437.3 961 411.7 961 386 961C360.3 961 334.7 961 308.8 961C283 961 257 961 231.2 961C205.3 961 179.7 961 154 961C128.3 961 102.7 961 77 961C51.3 961 25.7 961 12.8 961L0 961Z" fill="#390f81"></path><path d="M0 687L12.8 689.5C25.7 692 51.3 697 77 706C102.7 715 128.3 728 154 725.8C179.7 723.7 205.3 706.3 231.2 715.3C257 724.3 283 759.7 308.8 773.7C334.7 787.7 360.3 780.3 386 761.5C411.7 742.7 437.3 712.3 463 707.8C488.7 703.3 514.3 724.7 527.2 735.3L540 746L540 961L527.2 961C514.3 961 488.7 961 463 961C437.3 961 411.7 961 386 961C360.3 961 334.7 961 308.8 961C283 961 257 961 231.2 961C205.3 961 179.7 961 154 961C128.3 961 102.7 961 77 961C51.3 961 25.7 961 12.8 961L0 961Z" fill="#2f117a"></path><path d="M0 795L12.8 781.5C25.7 768 51.3 741 77 747C102.7 753 128.3 792 154 790C179.7 788 205.3 745 231.2 732.8C257 720.7 283 739.3 308.8 752.2C334.7 765 360.3 772 386 778.7C411.7 785.3 437.3 791.7 463 794.7C488.7 797.7 514.3 797.3 527.2 797.2L540 797L540 961L527.2 961C514.3 961 488.7 961 463 961C437.3 961 411.7 961 386 961C360.3 961 334.7 961 308.8 961C283 961 257 961 231.2 961C205.3 961 179.7 961 154 961C128.3 961 102.7 961 77 961C51.3 961 25.7 961 12.8 961L0 961Z" fill="#241273"></path><path d="M0 870L12.8 857.8C25.7 845.7 51.3 821.3 77 810.5C102.7 799.7 128.3 802.3 154 812.8C179.7 823.3 205.3 841.7 231.2 847.7C257 853.7 283 847.3 308.8 845.8C334.7 844.3 360.3 847.7 386 837.7C411.7 827.7 437.3 804.3 463 792.8C488.7 781.3 514.3 781.7 527.2 781.8L540 782L540 961L527.2 961C514.3 961 488.7 961 463 961C437.3 961 411.7 961 386 961C360.3 961 334.7 961 308.8 961C283 961 257 961 231.2 961C205.3 961 179.7 961 154 961C128.3 961 102.7 961 77 961C51.3 961 25.7 961 12.8 961L0 961Z" fill="#1a126b"></path><path d="M0 865L12.8 860.8C25.7 856.7 51.3 848.3 77 845.8C102.7 843.3 128.3 846.7 154 850.3C179.7 854 205.3 858 231.2 859.8C257 861.7 283 861.3 308.8 860.2C334.7 859 360.3 857 386 862.2C411.7 867.3 437.3 879.7 463 882.7C488.7 885.7 514.3 879.3 527.2 876.2L540 873L540 961L527.2 961C514.3 961 488.7 961 463 961C437.3 961 411.7 961 386 961C360.3 961 334.7 961 308.8 961C283 961 257 961 231.2 961C205.3 961 179.7 961 154 961C128.3 961 102.7 961 77 961C51.3 961 25.7 961 12.8 961L0 961Z" fill="#0d1264"></path><path d="M0 913L12.8 913.3C25.7 913.7 51.3 914.3 77 905.8C102.7 897.3 128.3 879.7 154 877.2C179.7 874.7 205.3 887.3 231.2 889.8C257 892.3 283 884.7 308.8 886.7C334.7 888.7 360.3 900.3 386 905.8C411.7 911.3 437.3 910.7 463 903.8C488.7 897 514.3 884 527.2 877.5L540 871L540 961L527.2 961C514.3 961 488.7 961 463 961C437.3 961 411.7 961 386 961C360.3 961 334.7 961 308.8 961C283 961 257 961 231.2 961C205.3 961 179.7 961 154 961C128.3 961 102.7 961 77 961C51.3 961 25.7 961 12.8 961L0 961Z" fill="#00115c"></path></svg>