<svg id="visual" viewBox="0 0 900 675" width="900" height="675" xmlns="http://www.w3.org/2000/svg" xmlns:xlink="http://www.w3.org/1999/xlink" version="1.1"><rect x="0" y="0" width="900" height="675" fill="#000000"></rect><path d="M0 555L25 538.2C50 521.3 100 487.7 150 498.7C200 509.7 250 565.3 300 580.3C350 595.3 400 569.7 450 529.2C500 488.7 550 433.3 600 427.3C650 421.3 700 464.7 750 479.3C800 494 850 480 875 473L900 466L900 676L875 676C850 676 800 676 750 676C700 676 650 676 600 676C550 676 500 676 450 676C400 676 350 676 300 676C250 676 200 676 150 676C100 676 50 676 25 676L0 676Z" fill="#2a9d8f" stroke-linecap="round" stroke-linejoin="miter"></path></svg>